<svg width="53" height="53" viewBox="0 0 53 53" fill="none" xmlns="http://www.w3.org/2000/svg">
<g clip-path="url(#clip0_0_81)">
<path d="M52.4782 26.1524L44.0334 5.94001L35.8851 9.34452C35.9873 8.38349 35.9873 7.02373 35.4659 6.04224C34.3004 3.86458 31.5808 3.03646 29.4032 4.20197C27.2255 5.36748 26.3974 8.087 27.5629 10.2647C27.9719 11.0314 28.5853 11.6551 29.3418 12.0743L20.6312 15.7037C20.4369 15.0903 20.1405 14.5075 19.7622 13.9861C19.8746 13.9248 19.9667 13.8532 20.0587 13.7612C20.2734 13.5465 20.4063 13.2602 20.4063 12.9535L20.3654 9.57967H21.0606C21.2242 9.57967 21.3775 9.5081 21.49 9.39564C21.6127 9.28318 21.674 9.1196 21.674 8.95602L21.5513 0L20.3245 0.0204475L20.4369 8.35282L4.04825 8.4755L3.93579 0L2.70893 0.0204475L2.82139 9.10937C2.83162 9.44676 3.09744 9.70235 3.43482 9.71258H4.15048C4.15048 9.74325 4.19138 13.0864 4.19138 13.0864C4.2016 13.4545 4.38563 13.7919 4.68212 14.0066L4.23227 14.7222C4.05847 14.9983 3.82332 15.6833 3.82332 15.6833H3.8131L2.02394 22.3594L2.49423 23.8111L1.82969 24.1076C1.21626 24.3837 0.725523 24.8846 0.490376 25.5185C0.25523 26.1524 0.275677 26.8476 0.551719 27.461L9.64065 47.7654L18.157 43.952C18.4638 43.8191 18.6785 43.5328 18.7091 43.1954C18.7398 42.858 18.5864 42.5309 18.3104 42.3468C17.2165 41.5801 16.4599 40.7519 16.235 40.0772C15.6624 38.38 16.5724 36.5295 18.2797 35.957C19.9769 35.3845 21.8274 36.2944 22.3999 38.0017C22.6759 38.8094 22.6146 39.6989 22.2363 40.4657C22.0727 40.7928 22.1341 41.1813 22.3897 41.4369C22.6351 41.7027 23.0236 41.7845 23.3507 41.6312L30.4256 38.4618C30.7629 38.3187 31.0492 38.0733 31.2537 37.7666L32.3272 37.327C32.4499 38.3391 32.8281 39.3002 33.4314 40.1283C33.3189 40.1896 33.2269 40.2714 33.1349 40.3634C32.9099 40.5781 32.7873 40.8746 32.7873 41.1813L32.8384 44.5449H32.1432C31.9796 44.5449 31.8262 44.6165 31.7138 44.729C31.5911 44.8414 31.5297 45.005 31.54 45.1686L31.6524 52.8875H32.8793L32.7668 45.782L49.1555 45.6491L49.268 52.8978H50.4948L50.3824 45.0357C50.3721 44.6983 50.1063 44.4325 49.7689 44.4223H49.0533C49.0533 44.4018 49.0635 44.3711 49.0635 44.3507L49.0124 41.0586C49.0124 40.6906 48.8283 40.343 48.5216 40.1385C48.7568 39.7602 48.9408 39.474 48.9715 39.4126C49.1453 39.1468 49.2782 38.8503 49.36 38.5334L49.3804 38.4618H49.3907L51.1798 31.7755L50.5255 29.7103L51.1185 29.4649C52.4067 28.9333 53.0201 27.4713 52.4885 26.1831C52.4885 26.1728 52.4782 26.1626 52.4782 26.1524ZM9.65087 20.6111L9.54863 20.7849C8.85342 22.0118 7.59589 22.5536 7.58567 22.5536L7.13582 22.7377C7.13582 22.7377 7.84126 27.001 8.03552 28.238C8.14798 28.9742 8.01507 29.7307 7.64701 30.3748C7.38119 30.7531 6.9518 30.978 6.49173 30.978C6.17479 30.9678 6.04188 30.8042 5.99076 30.7122L3.99713 24.4859L3.61885 23.3102L3.30191 22.3287L5.02973 15.898C5.08085 15.7139 5.16264 15.5401 5.26487 15.3765C5.26487 15.3765 5.58181 14.8654 5.93964 14.3133L18.3717 14.211C18.9034 14.7733 19.2919 15.4583 19.5066 16.2047L9.65087 20.6111ZM18.9545 12.9944H18.9341V12.974L5.67383 13.0762C5.58181 13.0864 5.50002 13.0557 5.42846 13.0046V12.8819L5.38756 9.79437C5.45913 9.75347 5.54092 9.7228 5.62271 9.7228L18.9034 9.62056C18.9954 9.61034 19.0772 9.64101 19.1488 9.69213L19.1999 12.9228C19.1283 12.9637 19.0363 12.9944 18.9545 12.9944ZM29.9246 37.3372L23.6574 40.1487C24.2606 37.7461 22.8089 35.3129 20.4063 34.7097C18.0037 34.1065 15.5704 35.5583 14.9672 37.9608C14.7525 38.789 14.7934 39.6682 15.0592 40.4759C15.4069 41.488 16.3372 42.3877 17.1858 43.042L10.2438 46.1501L1.65589 26.9601C1.51275 26.6431 1.50253 26.2853 1.63544 25.9581C1.75812 25.631 2.00349 25.3754 2.32043 25.2323L2.86229 24.9869L4.86615 31.2336C5.17286 31.8164 5.76584 32.1946 6.43038 32.2049C6.43038 32.2049 8.02529 32.2355 8.67961 31.0189V30.9985C9.1908 30.0988 9.38505 29.0559 9.22147 28.0336C9.06812 27.0521 8.64894 24.4859 8.47514 23.4533C9.29304 23.0035 9.98826 22.3491 10.4994 21.5721L20.8766 16.9203C20.8766 16.9203 21.1628 16.7568 21.3878 16.8079C21.5207 16.859 21.6433 17.0123 21.7047 17.1453L24.915 24.4859C25.0479 24.8233 25.3852 25.0278 25.7431 25.0073C26.1009 24.9869 26.4076 24.7415 26.5201 24.4041C26.7961 23.4738 27.4709 22.7274 28.3706 22.3594C29.9655 21.6437 31.8467 22.3491 32.5623 23.9441C33.2269 25.4163 32.685 27.1441 31.2946 27.9722C30.4051 28.4732 28.8511 28.3505 28.2275 28.2789C27.9003 28.238 27.5731 28.3812 27.3687 28.647C27.3687 28.6572 27.0722 28.9946 27.2664 29.5774L30.3029 36.3455C30.4153 36.6011 30.3744 36.9078 30.2006 37.1225C30.1393 37.2145 30.0371 37.2963 29.9246 37.3372ZM47.7855 41.2324L47.8366 44.32C47.7651 44.3711 47.6833 44.4018 47.5913 44.3916L34.3106 44.4938C34.2186 44.5041 34.1368 44.4734 34.0652 44.4223L34.0141 41.2427L47.7855 41.2324ZM48.174 38.2164C48.1229 38.4005 48.0411 38.5743 47.9389 38.7378V38.7583C47.9389 38.7583 47.6322 39.2593 47.2743 39.8113L47.1516 40.0056H34.9342L34.832 39.9034C34.0448 39.065 33.5745 37.9711 33.5131 36.8158L42.3669 33.125C42.1727 33.4726 41.9886 33.8407 41.8148 34.2087L42.9292 34.7301C43.1542 34.2496 43.3995 33.7793 43.6551 33.3295C43.9107 32.8796 44.2583 32.4911 44.657 32.164C44.9535 31.9186 45.2705 31.7243 45.6181 31.5608L46.0679 31.3767L45.9964 30.8962C45.9861 30.886 45.9555 30.6611 45.8941 30.3237C45.7101 29.2195 45.3216 26.8272 45.1682 25.8866C45.0558 25.1505 45.1887 24.3939 45.5567 23.7498C45.8226 23.3715 46.252 23.1364 46.712 23.1364C47.029 23.1466 47.1619 23.3102 47.213 23.4124L49.0124 29.015L49.3907 30.1908L49.9018 31.7959L48.174 38.2164ZM51.3536 27.6246C51.2207 27.9416 50.9651 28.1971 50.6482 28.3301L50.1472 28.5448L48.3274 22.8808C48.0207 22.298 47.4277 21.93 46.7734 21.9095C45.1989 21.9504 44.5139 23.1057 44.5139 23.1057C44.0027 24.0054 43.8085 25.0482 43.9721 26.0706C44.1254 27.0623 44.5446 29.6182 44.7184 30.6508C44.4832 30.7838 44.2583 30.9371 44.0436 31.1007L31.5706 36.3148C31.54 36.1512 28.6977 29.7512 28.6977 29.7512C29.7099 29.8227 30.8754 29.7716 31.7444 29.3115L32.1329 29.0764C32.6032 28.7595 33.0122 28.3607 33.3291 27.8904L33.462 27.686C33.6972 27.2975 33.871 26.8783 33.9834 26.4387C33.9937 26.4182 33.9937 26.3978 33.9937 26.3773H34.0039C34.1163 25.9786 34.1675 25.5696 34.1675 25.1505C34.1675 24.7006 34.0959 24.2405 33.963 23.8111C33.2269 21.4495 30.7118 20.1408 28.3501 20.8769C27.7862 21.0552 27.263 21.3429 26.8104 21.7236C26.3578 22.1043 25.9847 22.5705 25.7124 23.0955L24.9865 21.4699C24.7514 20.8872 23.1871 17.452 22.8395 16.6545C22.7577 16.5012 22.6657 16.3478 22.5533 16.2149L30.6403 12.8819C30.9776 12.7388 31.1821 12.4014 31.1617 12.0436C31.1515 11.6858 30.9061 11.3791 30.5687 11.2768C28.8511 10.7554 27.8798 8.94579 28.4013 7.21798C28.4524 7.0544 28.5137 6.90104 28.5853 6.74768C28.984 5.90934 29.7201 5.27546 30.6198 5.03009C32.092 4.61092 33.6563 5.26524 34.3822 6.61478C34.8627 7.51447 34.6991 9.05826 34.6071 9.6819C34.5662 10.0193 34.6991 10.3464 34.9649 10.5509C35.2307 10.7554 35.5783 10.8065 35.8851 10.6736L43.3689 7.54514L51.3434 26.6227C51.4865 26.9396 51.4865 27.3077 51.3536 27.6246Z" fill="#262626"/>
<path d="M12.9649 48.6047L14.0551 48.0421L15.4711 50.7857L14.3808 51.3484L12.9649 48.6047ZM4.11523 50.8351L5.53123 48.0915L6.62149 48.6541L5.2055 51.3977L4.11523 50.8351ZM9.11803 52.9354L9.19348 49.8487L10.4199 49.8787L10.3445 52.9652L9.11803 52.9354ZM38.9034 2.29432L39.9936 1.73171L41.4096 4.47536L40.3193 5.03797L38.9034 2.29432ZM47.7564 4.51656L49.1724 1.77291L50.2625 2.33562L48.8465 5.07917L47.7564 4.51656ZM43.8865 3.21947L43.962 0.132812L45.1884 0.162768L45.113 3.24932L43.8865 3.21947Z" fill="#262626"/>
</g>
<defs>
<clipPath id="clip0_0_81">
<rect width="53" height="53" fill="white"/>
</clipPath>
</defs>
</svg>
